<mxfile host="drawio-plugin" modified="2024-03-20T10:02:56.146Z" agent="5.0 (Windows NT 10.0; Win64; x64) AppleWebKit/537.36 (KHTML, like Gecko) Chrome/111.0.0.0 Safari/537.36" etag="N0mTS6nkwNJ9pfSEUeej" version="20.5.3" type="embed"><diagram id="23iRSUPoRavnBvh4doch" name="Page-1"><mxGraphModel dx="526" dy="824" grid="1" gridSize="10" guides="1" tooltips="1" connect="1" arrows="1" fold="1" page="1" pageScale="1" pageWidth="827" pageHeight="1169" math="0" shadow="0"><root><mxCell id="0"/><mxCell id="1" parent="0"/><mxCell id="2" value="&lt;p style=&quot;margin:0px;margin-top:4px;text-align:center;&quot;&gt;&lt;i&gt;&amp;lt;&amp;lt;Interface&amp;gt;&amp;gt;&lt;/i&gt;&lt;br&gt;&lt;b&gt;GroupIterator&lt;/b&gt;&lt;/p&gt;&lt;hr size=&quot;1&quot;&gt;&lt;p style=&quot;margin:0px;margin-left:4px;&quot;&gt;&lt;span style=&quot;background-color: initial;&quot;&gt;+ hasNext(): boolean&lt;/span&gt;&lt;/p&gt;&lt;p style=&quot;margin:0px;margin-left:4px;&quot;&gt;&lt;span style=&quot;background-color: initial;&quot;&gt;+ next(): Student&lt;/span&gt;&lt;/p&gt;" style="verticalAlign=top;align=left;overflow=fill;fontSize=12;fontFamily=Helvetica;html=1;" parent="1" vertex="1"><mxGeometry x="485" y="80" width="190" height="80" as="geometry"/></mxCell><mxCell id="3" value="StudentsGroup" style="swimlane;fontStyle=1;align=center;verticalAlign=top;childLayout=stackLayout;horizontal=1;startSize=26;horizontalStack=0;resizeParent=1;resizeParentMax=0;resizeLast=0;collapsible=1;marginBottom=0;" parent="1" vertex="1"><mxGeometry x="480" y="240" width="200" height="150" as="geometry"/></mxCell><mxCell id="4" value="- students: SortedSet&lt;Students&gt;" style="text;strokeColor=none;fillColor=none;align=left;verticalAlign=top;spacingLeft=4;spacingRight=4;overflow=hidden;rotatable=0;points=[[0,0.5],[1,0.5]];portConstraint=eastwest;" parent="3" vertex="1"><mxGeometry y="26" width="200" height="26" as="geometry"/></mxCell><mxCell id="5" value="" style="line;strokeWidth=1;fillColor=none;align=left;verticalAlign=middle;spacingTop=-1;spacingLeft=3;spacingRight=3;rotatable=0;labelPosition=right;points=[];portConstraint=eastwest;strokeColor=inherit;" parent="3" vertex="1"><mxGeometry y="52" width="200" height="8" as="geometry"/></mxCell><mxCell id="6" value="+ SudentGroup(): StudentGroup&#10;&#10;+ addStudent(sudent:Student)&#10;+ removeSutent(student: Student)&#10;+ groupIterator(): GroupIterator" style="text;strokeColor=none;fillColor=none;align=left;verticalAlign=top;spacingLeft=4;spacingRight=4;overflow=hidden;rotatable=0;points=[[0,0.5],[1,0.5]];portConstraint=eastwest;" parent="3" vertex="1"><mxGeometry y="60" width="200" height="90" as="geometry"/></mxCell><mxCell id="7" value="Student" style="swimlane;fontStyle=1;align=center;verticalAlign=top;childLayout=stackLayout;horizontal=1;startSize=26;horizontalStack=0;resizeParent=1;resizeParentMax=0;resizeLast=0;collapsible=1;marginBottom=0;" parent="1" vertex="1"><mxGeometry x="130" y="270" width="190" height="170" as="geometry"/></mxCell><mxCell id="8" value="- fullName: String&#10;- exams: List&lt;Exam&gt;" style="text;strokeColor=none;fillColor=none;align=left;verticalAlign=top;spacingLeft=4;spacingRight=4;overflow=hidden;rotatable=0;points=[[0,0.5],[1,0.5]];portConstraint=eastwest;" parent="7" vertex="1"><mxGeometry y="26" width="190" height="44" as="geometry"/></mxCell><mxCell id="9" value="" style="line;strokeWidth=1;fillColor=none;align=left;verticalAlign=middle;spacingTop=-1;spacingLeft=3;spacingRight=3;rotatable=0;labelPosition=right;points=[];portConstraint=eastwest;strokeColor=inherit;" parent="7" vertex="1"><mxGeometry y="70" width="190" height="8" as="geometry"/></mxCell><mxCell id="10" value="+ Student(name: String): Student&#10;&#10;+ getFullname(): String&#10;+ getExams(): List&lt;Exam&gt;&#10;+ addExam(exam: Exam)" style="text;strokeColor=none;fillColor=none;align=left;verticalAlign=top;spacingLeft=4;spacingRight=4;overflow=hidden;rotatable=0;points=[[0,0.5],[1,0.5]];portConstraint=eastwest;" parent="7" vertex="1"><mxGeometry y="78" width="190" height="92" as="geometry"/></mxCell><mxCell id="11" value="" style="endArrow=block;dashed=1;endFill=0;endSize=12;html=1;rounded=0;entryX=1;entryY=0.5;entryDx=0;entryDy=0;edgeStyle=orthogonalEdgeStyle;exitX=0.5;exitY=0;exitDx=0;exitDy=0;" parent="1" source="23" target="2" edge="1"><mxGeometry width="160" relative="1" as="geometry"><mxPoint x="760" y="230" as="sourcePoint"/><mxPoint x="490" y="320" as="targetPoint"/><Array as="points"><mxPoint x="915" y="225"/><mxPoint x="720" y="225"/><mxPoint x="720" y="120"/></Array></mxGeometry></mxCell><mxCell id="12" value="0..*" style="endArrow=open;html=1;endSize=12;startArrow=diamondThin;startSize=14;startFill=0;edgeStyle=orthogonalEdgeStyle;align=left;verticalAlign=bottom;rounded=0;entryX=0.996;entryY=0.062;entryDx=0;entryDy=0;entryPerimeter=0;" parent="1" source="4" target="7" edge="1"><mxGeometry x="-0.6275" relative="1" as="geometry"><mxPoint x="330" y="320" as="sourcePoint"/><mxPoint x="330" y="279" as="targetPoint"/><mxPoint as="offset"/></mxGeometry></mxCell><mxCell id="15" value="Actor" style="shape=umlActor;verticalLabelPosition=bottom;verticalAlign=top;html=1;outlineConnect=0;" parent="1" vertex="1"><mxGeometry x="170" y="80" width="30" height="60" as="geometry"/></mxCell><mxCell id="16" value="Use" style="endArrow=open;endSize=12;dashed=1;html=1;rounded=0;exitX=1;exitY=0.3333333333333333;exitDx=0;exitDy=0;exitPerimeter=0;entryX=0;entryY=0.25;entryDx=0;entryDy=0;" parent="1" source="15" target="2" edge="1"><mxGeometry width="160" relative="1" as="geometry"><mxPoint x="330" y="320" as="sourcePoint"/><mxPoint x="490" y="320" as="targetPoint"/></mxGeometry></mxCell><mxCell id="17" value="Exam" style="swimlane;fontStyle=1;align=center;verticalAlign=top;childLayout=stackLayout;horizontal=1;startSize=26;horizontalStack=0;resizeParent=1;resizeParentMax=0;resizeLast=0;collapsible=1;marginBottom=0;" parent="1" vertex="1"><mxGeometry x="360" y="480" width="310" height="160" as="geometry"/></mxCell><mxCell id="18" value="- name: String&#10;- date: LocalDateTime" style="text;strokeColor=none;fillColor=none;align=left;verticalAlign=top;spacingLeft=4;spacingRight=4;overflow=hidden;rotatable=0;points=[[0,0.5],[1,0.5]];portConstraint=eastwest;" parent="17" vertex="1"><mxGeometry y="26" width="310" height="44" as="geometry"/></mxCell><mxCell id="19" value="" style="line;strokeWidth=1;fillColor=none;align=left;verticalAlign=middle;spacingTop=-1;spacingLeft=3;spacingRight=3;rotatable=0;labelPosition=right;points=[];portConstraint=eastwest;strokeColor=inherit;" parent="17" vertex="1"><mxGeometry y="70" width="310" height="8" as="geometry"/></mxCell><mxCell id="20" value="+ Exam(name:String, date: LocalDateTime): type&#10;&#10;+ getName(): String&#10;+ getDate(): LocalDateTime" style="text;strokeColor=none;fillColor=none;align=left;verticalAlign=top;spacingLeft=4;spacingRight=4;overflow=hidden;rotatable=0;points=[[0,0.5],[1,0.5]];portConstraint=eastwest;" parent="17" vertex="1"><mxGeometry y="78" width="310" height="82" as="geometry"/></mxCell><mxCell id="21" value="0..*" style="endArrow=open;html=1;endSize=12;startArrow=diamondThin;startSize=14;startFill=0;edgeStyle=orthogonalEdgeStyle;align=left;verticalAlign=bottom;rounded=0;exitX=1;exitY=0.5;exitDx=0;exitDy=0;entryX=0.519;entryY=-0.008;entryDx=0;entryDy=0;entryPerimeter=0;" parent="1" source="8" target="17" edge="1"><mxGeometry x="-0.8894" y="-2" relative="1" as="geometry"><mxPoint x="400" y="380" as="sourcePoint"/><mxPoint x="560" y="380" as="targetPoint"/><Array as="points"><mxPoint x="420" y="318"/><mxPoint x="420" y="440"/><mxPoint x="521" y="440"/></Array><mxPoint as="offset"/></mxGeometry></mxCell><mxCell id="22" value="Use" style="endArrow=open;endSize=12;dashed=1;html=1;rounded=0;exitX=1;exitY=1;exitDx=0;exitDy=0;exitPerimeter=0;entryX=0.25;entryY=0;entryDx=0;entryDy=0;edgeStyle=orthogonalEdgeStyle;" edge="1" parent="1" source="15" target="3"><mxGeometry width="160" relative="1" as="geometry"><mxPoint x="300" y="320" as="sourcePoint"/><mxPoint x="460" y="320" as="targetPoint"/></mxGeometry></mxCell><mxCell id="23" value="MyGroupIterator" style="swimlane;fontStyle=1;align=center;verticalAlign=top;childLayout=stackLayout;horizontal=1;startSize=26;horizontalStack=0;resizeParent=1;resizeParentMax=0;resizeLast=0;collapsible=1;marginBottom=0;" vertex="1" parent="1"><mxGeometry x="790" y="290" width="250" height="160" as="geometry"/></mxCell><mxCell id="24" value="- group: List&lt;Student&gt;&#10;- index: int" style="text;strokeColor=none;fillColor=none;align=left;verticalAlign=top;spacingLeft=4;spacingRight=4;overflow=hidden;rotatable=0;points=[[0,0.5],[1,0.5]];portConstraint=eastwest;" vertex="1" parent="23"><mxGeometry y="26" width="250" height="44" as="geometry"/></mxCell><mxCell id="25" value="" style="line;strokeWidth=1;fillColor=none;align=left;verticalAlign=middle;spacingTop=-1;spacingLeft=3;spacingRight=3;rotatable=0;labelPosition=right;points=[];portConstraint=eastwest;strokeColor=inherit;" vertex="1" parent="23"><mxGeometry y="70" width="250" height="8" as="geometry"/></mxCell><mxCell id="26" value="+ myGroupIterator(students: List&lt;Student&gt;)&#10; : MyGroupStudent&#10;&#10;+ hasNext(): boolean&#10;+ next(): Student " style="text;strokeColor=none;fillColor=none;align=left;verticalAlign=top;spacingLeft=4;spacingRight=4;overflow=hidden;rotatable=0;points=[[0,0.5],[1,0.5]];portConstraint=eastwest;" vertex="1" parent="23"><mxGeometry y="78" width="250" height="82" as="geometry"/></mxCell><mxCell id="27" value="Use" style="endArrow=open;endSize=12;dashed=1;html=1;rounded=0;exitX=1;exitY=0.5;exitDx=0;exitDy=0;entryX=0;entryY=0.5;entryDx=0;entryDy=0;edgeStyle=orthogonalEdgeStyle;" edge="1" parent="1" source="4" target="24"><mxGeometry width="160" relative="1" as="geometry"><mxPoint x="630" y="320" as="sourcePoint"/><mxPoint x="790" y="320" as="targetPoint"/></mxGeometry></mxCell></root></mxGraphModel></diagram></mxfile>